. 
  
http://www.torrenting.com/        :     Greatest Movie Tracker on The Net!!!
 
http://www.Torrenting.com          :     Once & For all ;)


               www . Torrenting . Com 

(((((((((((((= Enjoy No RAR releases =))))))))))))))))))))


...................................NFO:....................................

.  
[pre]ooooo ooo        ooooo       .o.         .oooooo.     o8o  ooooo      ooo oooooooooooo 
      888' `88.       .888'      .888.       d8P'  `Y8b    `"'  `888b.     `8' `888'     `8 
      888   888b     d'888      .8"888.     888           oooo   8 `88b.    8   888         
      888   8 Y88. .P  888     .8' `888.    888           `888   8   `88b.  8   888oooo8    
      888   8  `888'   888    .88ooo8888.   888     ooooo  888   8     `88b.8   888    "    
      888   8    Y     888   .8'     `888.  `88.    .88'   888   8       `888   888       o 
     o888o o8o        o888o o88o     o8888o  `Y8bood8P'   o888o o8o        `8  o888ooooood8                                                 



                  Another Fine Release Brought to you from - IMAGiNE                      
                                                                                          

******************************************************************************************
                        The Change Up 2011 TS XViD - IMAGiNE                              
******************************************************************************************

Ripper ...........: IMAGiNE              IMDB Rating.......: 6.1/10                             
Video Codec.......: XViD                 Release Date......: 14/08/11
Audio Codec.......: MP3                  Theatre Date......: 05/08/11
Audio Bitrate.....: 128                  Runtime...........: 1h 46mn
Subtitles.........: NIL                  Language..........: ENGLISH
Resolution........: 640 x 288            IMDb URL..........: http://www.imdb.com/title/tt1488555/


[color=yellow]DETAILS:[/color]

Video
ID                               : 0
Format                           : MPEG-4 Visual
Format profile                   : Advanced Simple@L5
Format settings, BVOP            : 2
Format settings, QPel            : No
Format settings, GMC             : No warppoints
Format settings, Matrix          : Default (MPEG)
Muxing mode                      : Packed bitstream
Codec ID                         : XVID
Codec ID/Hint                    : XviD
Duration                         : 1h 46mn
Bit rate                         : 1 697 Kbps
Width                            : 640 pixels
Height                           : 288 pixels
Display aspect ratio             : 2.222
Frame rate                       : 29.000 fps
Color space                      : YUV
Chroma subsampling               : 4:2:0
Bit depth                        : 8 bits
Scan type                        : Progressive
Compression mode                 : Lossy
Bits/(Pixel*Frame)               : 0.318
Stream size                      : 1.27 GiB (92%)
Writing library                  : XviD 64

Audio
ID                               : 1
Format                           : MPEG Audio
Format version                   : Version 1
Format profile                   : Layer 3
Mode                             : Joint stereo
Mode extension                   : MS Stereo
Codec ID                         : 55
Codec ID/Hint                    : MP3
Duration                         : 1h 46mn
Bit rate mode                    : Constant
Bit rate                         : 128 Kbps
Channel(s)                       : 2 channels
Sampling rate                    : 44.1 KHz
Compression mode                 : Lossy
Stream size                      : 97.9 MiB (7%)
Alignment                        : Split accross interleaves
Interleave, duration             : 34 ms (1.00 video frame)

[color=yellow]SOURCES:[/color]

VIDEO: ............... The Change Up 2011 CAM XviD ERDNA Thanks :D
AUDIO: ............... Thanks Matey :P

[color=yellow]NOTES:[/color]
Ok heres another one........
First we made a script to crop 
resize and sharpen
Then we made some adjustments 
to the colors as 
they were off.......
Audio is nice LiNE we filtered 
synced and muxed to 
our encode :P
Enjoy!

[color=yellow]SCREENS:[/color]


[color=yellow]GREETS:[/color]

FLAWL3SS,KINOPARK,Rx,ELEKTRI4KA,ADDiCTED,Autotron,CiNEDUB,
And to all the other p2p grps past and present 

[COLOR=RED]Looking for these,syncers,cammers,audio,silver supplier.....Have anything to offer????......
Contact us imaginegroup@hushmail.com[/COLOR][/pre]